<svg xmlns="http://www.w3.org/2000/svg" width="320" height="112" viewBox="0 0 320 112" role="img" aria-labelledby="title desc">
  <title id="title">FinServ Non-Prod Sprawl logo</title>
  <desc id="desc">Fictitious financial services demo customer logo with a ledger shield and environment grid.</desc>
  <rect width="320" height="112" rx="24" fill="#eff6ff"/>
  <rect x="14" y="14" width="292" height="84" rx="18" fill="#ffffff" stroke="#bfdbfe" stroke-width="2"/>
  <g transform="translate(38 24)">
    <path d="M42 4 74 17v22c0 19-14 32-32 39C24 71 10 58 10 39V17L42 4Z" fill="#1e3a8a"/>
    <path d="M26 30h32M26 44h32M26 58h24" stroke="#fbbf24" stroke-width="5" stroke-linecap="round"/>
    <g transform="translate(84 12)" fill="#dbeafe" stroke="#2563eb" stroke-width="2">
      <rect x="0" y="0" width="17" height="17" rx="4"/>
      <rect x="27" y="0" width="17" height="17" rx="4"/>
      <rect x="0" y="27" width="17" height="17" rx="4"/>
      <rect x="27" y="27" width="17" height="17" rx="4"/>
    </g>
  </g>
  <text x="154" y="52" fill="#0f172a" font-family="Arial, Helvetica, sans-serif" font-size="27" font-weight="700">FinServ</text>
  <text x="155" y="76" fill="#1d4ed8" font-family="Arial, Helvetica, sans-serif" font-size="13" font-weight="700" letter-spacing="1.1">NON-PROD SPRAWL</text>
</svg>
