<svg xmlns="http://www.w3.org/2000/svg" width="320" height="112" viewBox="0 0 320 112" role="img" aria-labelledby="title desc">
  <title id="title">RetailCo Expansion logo</title>
  <desc id="desc">Fictitious retail demo customer logo with a shopping bag cloud mark.</desc>
  <rect width="320" height="112" rx="24" fill="#fff7ed"/>
  <rect x="14" y="14" width="292" height="84" rx="18" fill="#ffffff" stroke="#fed7aa" stroke-width="2"/>
  <g transform="translate(36 28)">
    <path d="M16 22h48l-5 38H21l-5-38Z" fill="#f97316"/>
    <path d="M26 22c0-10 6-16 14-16s14 6 14 16" fill="none" stroke="#15803d" stroke-width="6" stroke-linecap="round"/>
    <circle cx="24" cy="38" r="4" fill="#ffffff"/>
    <circle cx="56" cy="38" r="4" fill="#ffffff"/>
    <path d="M72 42c7-15 27-14 32 1 8 1 14 7 14 15 0 9-7 16-17 16H72c-10 0-17-7-17-16 0-8 7-15 17-16Z" fill="#dcfce7" stroke="#15803d" stroke-width="3"/>
  </g>
  <text x="152" y="52" fill="#111827" font-family="Arial, Helvetica, sans-serif" font-size="28" font-weight="700">RetailCo</text>
  <text x="153" y="76" fill="#15803d" font-family="Arial, Helvetica, sans-serif" font-size="15" font-weight="700" letter-spacing="1.6">EXPANSION</text>
</svg>
